# xmcd
#
# Track frame offsets:
#	150
#	8785
#	22063
#	40047
#	63599
#	87890
#	104947
#	146755
#	166906
#	201026
#	230718
#	241990
#	254441
#	283302
#	312765
#
# Disc length: 4220 seconds
#
# Revision: 2
# Processed by: cddbd v1.5.2PL0 Copyright (c) Steve Scherf et al.
# Submitted via: EZCDDA 4.3.2
#
DISCID=da107a0f
DTITLE=Pain Of Salvation - The Orchetra Of Eternity
DYEAR=1900
DGENRE=
TTITLE0=Animae Partus
TTITLE1=Deus Nova
TTITLE2=Imago
TTITLE3=Pluvius Aestivus
TTITLE4=Lilium Cruentus
TTITLE5=Nauticus
TTITLE6=Dea Pecuniae
TTITLE7=Vocari Dei
TTITLE8=Diffidentia
TTITLE9=Nihil Morari
TTITLE10=Latericius Valete
TTITLE11=Omni
TTITLE12=Iter Impius
TTITLE13=Martius - Nauticus II
TTITLE14=Animae Partus II
EXTD=
EXTT0=
EXTT1=
EXTT2=
EXTT3=
EXTT4=
EXTT5=
EXTT6=
EXTT7=
EXTT8=
EXTT9=
EXTT10=
EXTT11=
EXTT12=
EXTT13=
EXTT14=
PLAYORDER=
